<svg width="30" height="28" viewBox="0 0 30 28"><path d="M14 14q0-1.656-1.172-2.828T10 10t-2.828 1.172T6 14t1.172 2.828T10 18t2.828-1.172T14 14zm12 8q0-.812-.594-1.406T24 20t-1.406.594T22 22q0 .828.586 1.414T24 24t1.414-.586T26 22zm0-16q0-.812-.594-1.406T24 4t-1.406.594T22 6q0 .828.586 1.414T24 8t1.414-.586T26 6zm-6 6.578v2.891q0 .156-.109.305t-.25.164l-2.422.375q-.172.547-.5 1.188.531.75 1.406 1.797.109.156.109.313 0 .187-.109.297-.359.469-1.289 1.398t-1.227.93q-.172 0-.328-.109l-1.797-1.406q-.578.297-1.203.484-.172 1.687-.359 2.422-.109.375-.469.375H8.547q-.172 0-.313-.117t-.156-.273l-.359-2.391q-.531-.156-1.172-.484l-1.844 1.391q-.109.109-.313.109-.172 0-.328-.125-2.25-2.078-2.25-2.5 0-.141.109-.297.156-.219.641-.828t.734-.953q-.359-.688-.547-1.281l-2.375-.375q-.156-.016-.266-.148t-.109-.305v-2.891q0-.156.109-.305t.25-.164l2.422-.375q.172-.547.5-1.188-.531-.75-1.406-1.797-.109-.172-.109-.313 0-.187.109-.313.344-.469 1.281-1.391t1.234-.922q.172 0 .328.109l1.797 1.406q.531-.281 1.203-.5.172-1.687.359-2.406Q8.185 4 8.545 4h2.906q.172 0 .313.117t.156.273l.359 2.391q.531.156 1.172.484l1.844-1.391q.125-.109.313-.109.172 0 .328.125 2.25 2.078 2.25 2.5 0 .141-.109.297-.187.25-.656.844t-.703.938q.359.75.531 1.281l2.375.359q.156.031.266.164t.109.305zm10 8.328v2.188q0 .25-2.328.484-.187.422-.469.812.797 1.766.797 2.156 0 .063-.063.109-1.906 1.109-1.937 1.109-.125 0-.719-.734t-.812-1.062q-.313.031-.469.031t-.469-.031q-.219.328-.812 1.062t-.719.734q-.031 0-1.937-1.109-.063-.047-.063-.109 0-.391.797-2.156-.281-.391-.469-.812Q18 23.344 18 23.094v-2.188q0-.25 2.328-.484.203-.453.469-.812Q20 17.844 20 17.454q0-.063.063-.109.063-.031.547-.313t.922-.531.469-.25q.125 0 .719.727t.812 1.055q.313-.031.469-.031t.469.031q.797-1.109 1.437-1.75l.094-.031q.063 0 1.937 1.094.063.047.063.109 0 .391-.797 2.156.266.359.469.812 2.328.234 2.328.484zm0-16v2.187q0 .25-2.328.484-.187.422-.469.812.797 1.766.797 2.156 0 .063-.063.109-1.906 1.109-1.937 1.109-.125 0-.719-.734t-.812-1.062q-.313.031-.469.031t-.469-.031q-.219.328-.812 1.062t-.719.734q-.031 0-1.937-1.109-.063-.047-.063-.109 0-.391.797-2.156-.281-.391-.469-.812Q18 7.343 18 7.093V4.905q0-.25 2.328-.484.203-.453.469-.812Q20 1.843 20 1.453q0-.063.063-.109.063-.031.547-.313T21.532.5t.469-.25q.125 0 .719.727t.812 1.055q.313-.031.469-.031t.469.031q.797-1.109 1.437-1.75l.094-.031q.063 0 1.937 1.094.063.047.063.109 0 .391-.797 2.156.266.359.469.812 2.328.234 2.328.484z"/></svg>